<svg width="12" height="10" viewBox="0 0 12 10" fill="none" xmlns="http://www.w3.org/2000/svg">
<path fill-rule="evenodd" clip-rule="evenodd" d="M10.5083 0.79836H6.57589C6.47706 0.79836 6.39723 0.880217 6.39723 0.98111C6.39723 1.082 6.47706 1.16386 6.57589 1.16386H10.5083C10.8371 1.16386 11.1051 1.43608 11.1051 1.77112V1.98433C10.9416 1.85108 10.7345 1.77112 10.5083 1.77112H6.03991V0.98111C6.03991 0.444282 5.61227 0.00834656 5.0877 0.00834656H1.21423C0.687757 0.00834656 0.260117 0.444282 0.260117 0.98111V9.6446C0.260117 9.7455 0.339943 9.82735 0.438775 9.82735H11.2818C11.3807 9.82735 11.4605 9.7455 11.4605 9.6446V1.77112C11.4605 1.2362 11.0329 0.79836 10.5083 0.79836ZM11.1032 9.46185H0.617434V0.98111C0.617434 0.646068 0.885422 0.373847 1.21423 0.373847H5.0877C5.41651 0.373847 5.6845 0.646068 5.6845 0.98111V1.95387C5.6845 2.05477 5.76432 2.13662 5.86316 2.13662H10.5102C10.839 2.13662 11.107 2.40884 11.107 2.74389V9.46185H11.1032ZM8.29596 5.64314C8.78822 5.64314 9.18925 5.23386 9.18925 4.73129C9.18925 4.22873 8.78822 3.81945 8.29596 3.81945C7.80369 3.81945 7.40266 4.22873 7.40266 4.73129C7.40266 5.23576 7.80369 5.64314 8.29596 5.64314ZM8.29596 4.18495C8.59245 4.18495 8.83193 4.43052 8.83193 4.7332C8.83193 5.03588 8.59055 5.28145 8.29596 5.28145C7.99946 5.28145 7.75998 5.03588 7.75998 4.7332C7.75998 4.43052 8.00136 4.18495 8.29596 4.18495ZM7.60033 6.18568C7.8132 6.06956 8.05268 6.00864 8.29596 6.00864C9.11132 6.00864 9.77274 6.68443 9.77084 7.51252C9.77084 7.61341 9.69101 7.69527 9.59218 7.69527H8.29596C8.19712 7.69527 8.1173 7.61341 8.1173 7.51252C8.1173 7.41163 8.19712 7.32977 8.29596 7.32977H9.40022C9.31279 6.78723 8.85094 6.37224 8.29596 6.37224C8.11159 6.37224 7.93104 6.41983 7.76948 6.50739C7.68395 6.55499 7.57372 6.52262 7.5281 6.43315C7.48059 6.34368 7.5129 6.23327 7.60033 6.18568ZM3.43986 7.33167H2.32039C2.40592 6.78913 2.86777 6.37414 3.42466 6.37414C3.60902 6.37414 3.79148 6.41983 3.95113 6.5093C4.03856 6.55689 4.14689 6.52262 4.19251 6.43506C4.23812 6.34559 4.20581 6.23517 4.12028 6.18758C3.90741 6.07146 3.66794 6.01054 3.42466 6.01054C2.61119 6.01054 1.94977 6.68634 1.94977 7.51442C1.94977 7.61532 2.0296 7.69717 2.12843 7.69717H3.44176C3.54059 7.69717 3.62042 7.61532 3.62042 7.51442C3.61852 7.41163 3.53869 7.33167 3.43986 7.33167ZM4.31795 4.73129C4.31795 5.23386 3.91692 5.64314 3.42466 5.64314C2.93239 5.64314 2.53136 5.23576 2.52946 4.73129C2.52946 4.22873 2.93239 3.81945 3.42466 3.81945C3.91692 3.81945 4.31795 4.22873 4.31795 4.73129ZM3.96063 4.7332C3.96063 4.43052 3.72115 4.18495 3.42466 4.18495C3.12816 4.18495 2.88868 4.43052 2.88868 4.7332C2.88868 5.03588 3.12816 5.28145 3.42466 5.28145C3.71925 5.28145 3.96063 5.03588 3.96063 4.7332ZM5.86126 5.70977C6.49606 5.70977 7.01304 5.18246 7.01304 4.53522C7.01304 3.88798 6.49606 3.36067 5.86126 3.36067C5.22645 3.36067 4.70948 3.88798 4.70948 4.53522C4.70948 5.18246 5.22645 5.70977 5.86126 5.70977ZM5.86126 3.72617C6.2984 3.72617 6.65572 4.08976 6.65572 4.53522C6.65572 4.98067 6.3003 5.34427 5.86126 5.34427C5.42411 5.34427 5.0668 4.98067 5.0668 4.53522C5.0668 4.08976 5.42221 3.72617 5.86126 3.72617ZM3.92072 8.05506C3.92072 6.96427 4.7912 6.07527 5.86126 6.07527C6.93131 6.07527 7.80179 6.96237 7.80369 8.05506C7.80369 8.15595 7.72387 8.23781 7.62504 8.23781H4.09938C4.00055 8.23781 3.92072 8.15595 3.92072 8.05506ZM5.86126 6.43886C5.04779 6.43886 4.37687 7.06707 4.28754 7.87231H7.43497C7.34564 7.06707 6.67472 6.43886 5.86126 6.43886Z" fill="#9B9B9A"/>
</svg>
