<svg id="icon-hcm" xmlns="http://www.w3.org/2000/svg" xmlns:xlink="http://www.w3.org/1999/xlink" width="66.615" height="51.004" viewBox="0 0 66.615 51.004">
  <defs>
    <clipPath id="clip-path">
      <rect id="Retângulo_104" data-name="Retângulo 104" width="66.615" height="51.004" fill="#fff"/>
    </clipPath>
  </defs>
  <g id="Grupo_154" data-name="Grupo 154" clip-path="url(#clip-path)">
    <path id="Caminho_112" data-name="Caminho 112" d="M85.679,3.65a1.179,1.179,0,0,1-.217-.022,1.044,1.044,0,0,1-.849-.189C81.807,1.308,77.735,2.124,73.8,2.914a31.5,31.5,0,0,1-6,.83c-.261,0-.517-.009-.771-.027a34.378,34.378,0,0,0,.138,10.254l.295-.694a1.06,1.06,0,0,1,.458-.507c.3-.162,7.439-3.98,19.062-2.521a1.042,1.042,0,0,1,.849.52,29.639,29.639,0,0,1,1.756,3.72,35.2,35.2,0,0,0,.683-5.567c0-3.643-2.3-5.273-4.593-5.273M70.964,29.562a8.917,8.917,0,0,0,14.559,0,13.884,13.884,0,0,0,3.14-8.732V19.577c0-2.574-1.729-6.076-2.385-7.311-9.361-1.069-15.626,1.517-17.047,2.182l-1.4,3.288v3.1a13.9,13.9,0,0,0,3.129,8.73m19.78-8.736a15.991,15.991,0,0,1-3.619,10.061,10.985,10.985,0,0,1-17.765,0,16.027,16.027,0,0,1-3.607-10.058V17.643a43.169,43.169,0,0,1-1.119-9.651,21.155,21.155,0,0,1,.6-5.7,1.039,1.039,0,0,1,1.089-.715,1.154,1.154,0,0,1,.24.005A21.85,21.85,0,0,0,73.388.873c4.075-.818,8.677-1.742,12.2.7a.718.718,0,0,1,.1,0,6.333,6.333,0,0,1,4.94,2.222,7.92,7.92,0,0,1,1.735,5.131c0,3.251-1.385,9.256-1.61,10.212Z" transform="translate(-44.945 0)" fill="#fff"/>
    <path id="Caminho_113" data-name="Caminho 113" d="M32.891,123.53a1.224,1.224,0,0,0,1.325,1.031H51.51l.619-3.091a2.988,2.988,0,0,1-.182-.293l-1.214,1.215A1.044,1.044,0,0,1,50,122.7a.52.52,0,0,1-.08,0,1.052,1.052,0,0,1-.762-.426l-5.916-8.136-5.918,1.237a6.468,6.468,0,0,0-4.429,6.2Zm43.681,0v-1.958a6.469,6.469,0,0,0-4.43-6.2l-5.917-1.237-5.918,8.136a1.045,1.045,0,0,1-.761.426c-.027,0-.054,0-.08,0a1.051,1.051,0,0,1-.738-.306l-1.213-1.215a2.554,2.554,0,0,1-.184.293l.62,3.091H75.246a1.225,1.225,0,0,0,1.326-1.031M63.219,110.986l-6.96,5.993,3.081,3.079,5.171-7.112Zm-9.529,8.849c0,.343.211.572.347.572h1.389c.139,0,.346-.229.346-.572v-.4l-1.039-1.042-1.043,1.042Zm1.724,2.653H54.048l-.415,2.073h2.2Zm-9.171-11.5-1.293,1.96,5.172,7.112,3.081-3.079Zm-9.451,2.37a.488.488,0,0,1,.069-.016l6.193-1.3,1.637-2.482a.464.464,0,0,1,.035-.052,1.832,1.832,0,0,1,2.624-.319.092.092,0,0,0,.02.016l7.363,6.341,7.362-6.341.021-.016a1.829,1.829,0,0,1,2.622.319.243.243,0,0,1,.034.052l1.637,2.482,6.2,1.3a.528.528,0,0,1,.066.016,7.9,7.9,0,0,1,4.429,3.23,8.914,8.914,0,0,1,1.553,4.986v1.958a3.273,3.273,0,0,1-3.406,3.114H34.216a3.275,3.275,0,0,1-3.407-3.114v-1.958a8.937,8.937,0,0,1,1.553-4.986,7.911,7.911,0,0,1,4.429-3.23" transform="translate(-21.424 -75.64)" fill="#fff"/>
    <path id="Caminho_114" data-name="Caminho 114" d="M160.431,41.779a10.083,10.083,0,0,1-2.423,6.684,7.891,7.891,0,0,1-5.963,2.8,7.7,7.7,0,0,1-4.716-1.635,1.041,1.041,0,0,1,1.268-1.65,5.619,5.619,0,0,0,3.448,1.2c3.477,0,6.3-3.321,6.3-7.4v-.61a17.13,17.13,0,0,0-1.036-4.854,24.348,24.348,0,0,0-5.891.337l-.186.029a1.191,1.191,0,0,1-.151.011,1.042,1.042,0,0,1-.153-2.073l.184-.027a24.728,24.728,0,0,1,7.076-.278s0,0,.008,0h0l.007,0c.03,0,.062.009.092.016l.046.013a.394.394,0,0,1,.05.014.318.318,0,0,1,.057.023.149.149,0,0,1,.034.014c.023.009.042.019.061.029l.029.016a.328.328,0,0,1,.054.031.26.26,0,0,0,.036.024c.011.009.027.019.04.03a.191.191,0,0,1,.038.033c.013.01.021.019.033.029l.042.04.023.028c.015.016.03.03.044.048a.28.28,0,0,1,.021.032c.012.016.023.033.035.05a.25.25,0,0,1,.026.045c.008.014.017.027.027.041s.023.058.036.086c0,0,0,.005,0,.007v0s0,0,0,.005c.02.046.094.243.2.545a15.653,15.653,0,0,0,.136-1.786c0-2.249-1.084-3.254-2.163-3.254a1.242,1.242,0,0,1-.149-.014,1.191,1.191,0,0,1-.147.014,1.032,1.032,0,0,1-.629-.213,5.468,5.468,0,0,0-4.062-.8,1.041,1.041,0,1,1-.207-2.071A7.869,7.869,0,0,1,157.25,28.4c2.482.019,4.211,2.209,4.211,5.337a42.465,42.465,0,0,1-1.03,6.934Z" transform="translate(-102.164 -19)" fill="#fff"/>
    <path id="Caminho_115" data-name="Caminho 115" d="M173.374,112.146h4.634c.327,0,.57-.194.57-.371v-1.333a4.065,4.065,0,0,0-2.763-3.9l-3.791-.791-1.956,2.822a1.041,1.041,0,0,1-1.712-1.184l1.951-2.816-.578-.873-4.059,3.032a1.041,1.041,0,0,1-1.246-1.669l4.456-3.328a1.613,1.613,0,0,1,1.167-.327,1.585,1.585,0,0,1,1.07.621.28.28,0,0,1,.038.052l1.039,1.576,4.084.853c.023.005.045.012.069.02a6.174,6.174,0,0,1,4.314,5.911v1.333a2.56,2.56,0,0,1-2.652,2.452h-4.634a1.04,1.04,0,1,1,0-2.081" transform="translate(-114.046 -70.51)" fill="#fff"/>
    <path id="Caminho_116" data-name="Caminho 116" d="M34.347,25.981a36.831,36.831,0,0,0-4.859.569c-1.236.2-2.42.391-3.448.457.035,2.463.2,4.681.382,6.466l.005,0,.052-.035a.07.07,0,0,0,.021-.017.161.161,0,0,0,.028-.015l0,0A17.166,17.166,0,0,1,34.25,31.19a1.042,1.042,0,0,1,.155,2.078,15.41,15.41,0,0,0-6.553,1.774,10.069,10.069,0,0,0-.789,3.745V39.4c0,4.084,2.828,7.4,6.3,7.4a5.624,5.624,0,0,0,3.449-1.2,1.041,1.041,0,0,1,1.268,1.65,7.691,7.691,0,0,1-4.718,1.637,7.888,7.888,0,0,1-5.963-2.8A10.1,10.1,0,0,1,24.981,39.4V38.275a70.826,70.826,0,0,1-1.028-12.032,1.02,1.02,0,0,1-.034-.32,1.041,1.041,0,0,1,1.045-.98h.027l.06,0a23.017,23.017,0,0,0,4.1-.449,38.456,38.456,0,0,1,5.15-.595,1.041,1.041,0,1,1,.041,2.081" transform="translate(-16.632 -16.619)" fill="#fff"/>
    <path id="Caminho_117" data-name="Caminho 117" d="M4.316,104.529a.559.559,0,0,1,.068-.016l4.081-.854,1.04-1.578c.012-.015.023-.033.036-.05a1.578,1.578,0,0,1,2.24-.292l4.455,3.327a1.04,1.04,0,0,1-1.246,1.666l-4.059-3.03-.576.872,1.948,2.814a1.041,1.041,0,0,1-.262,1.45,1.026,1.026,0,0,1-.592.183,1.042,1.042,0,0,1-.855-.446l-1.958-2.827-3.789.794a4.066,4.066,0,0,0-2.765,3.9v1.333c0,.174.245.371.572.371H7.286a1.04,1.04,0,1,1,0,2.081H2.654A2.561,2.561,0,0,1,0,111.775v-1.333a6.175,6.175,0,0,1,4.316-5.913" transform="translate(0 -70.51)" fill="#fff"/>
  </g>
</svg>
